<mxfile host="app.diagrams.net" modified="2021-07-13T04:16:01.160Z" agent="5.0 (Macintosh; Intel Mac OS X 10_15_7) AppleWebKit/605.1.15 (KHTML, like Gecko) Version/14.1.1 Safari/605.1.15" etag="06gqBLNl_J8D53-Her92" version="14.8.6" type="github">
  <diagram id="JNfW-Snu7HZ69zlSE7ZA" name="Page-1">
    <mxGraphModel dx="946" dy="662" grid="1" gridSize="10" guides="1" tooltips="1" connect="1" arrows="1" fold="1" page="1" pageScale="1" pageWidth="1600" pageHeight="1200" math="0" shadow="0">
      <root>
        <mxCell id="0" />
        <mxCell id="1" parent="0" />
        <mxCell id="0unmyZDA7wH03IB9dR9J-1" value="「Home」をクリック" style="rounded=0;whiteSpace=wrap;html=1;" vertex="1" parent="1">
          <mxGeometry y="40" width="120" height="40" as="geometry" />
        </mxCell>
        <mxCell id="0unmyZDA7wH03IB9dR9J-2" value="「作業内容新規作成」を&lt;br&gt;クリック" style="rounded=0;whiteSpace=wrap;html=1;" vertex="1" parent="1">
          <mxGeometry x="240" y="40" width="120" height="40" as="geometry" />
        </mxCell>
        <mxCell id="iRPn7jhy0V3vgC46jtZ8-1" style="edgeStyle=orthogonalEdgeStyle;rounded=0;orthogonalLoop=1;jettySize=auto;html=1;exitX=0.5;exitY=1;exitDx=0;exitDy=0;" edge="1" parent="1" source="0unmyZDA7wH03IB9dR9J-1" target="0unmyZDA7wH03IB9dR9J-1">
          <mxGeometry relative="1" as="geometry" />
        </mxCell>
        <mxCell id="iRPn7jhy0V3vgC46jtZ8-3" value="「作業内容一覧」を&lt;br&gt;クリック" style="rounded=0;whiteSpace=wrap;html=1;" vertex="1" parent="1">
          <mxGeometry x="360" y="40" width="120" height="40" as="geometry" />
        </mxCell>
        <mxCell id="iRPn7jhy0V3vgC46jtZ8-4" value="「雑談新規投稿」を&lt;br&gt;クリック" style="rounded=0;whiteSpace=wrap;html=1;" vertex="1" parent="1">
          <mxGeometry x="480" y="40" width="120" height="40" as="geometry" />
        </mxCell>
        <mxCell id="iRPn7jhy0V3vgC46jtZ8-5" value="「出勤状況」を&lt;br&gt;クリック" style="rounded=0;whiteSpace=wrap;html=1;" vertex="1" parent="1">
          <mxGeometry x="600" y="40" width="120" height="40" as="geometry" />
        </mxCell>
        <mxCell id="iRPn7jhy0V3vgC46jtZ8-6" value="「チーム一覧」を&lt;br&gt;クリック" style="rounded=0;whiteSpace=wrap;html=1;" vertex="1" parent="1">
          <mxGeometry x="720" y="40" width="120" height="40" as="geometry" />
        </mxCell>
        <mxCell id="iRPn7jhy0V3vgC46jtZ8-7" value="「ユーザー一覧」を&lt;br&gt;クリック" style="rounded=0;whiteSpace=wrap;html=1;" vertex="1" parent="1">
          <mxGeometry x="840" y="40" width="120" height="40" as="geometry" />
        </mxCell>
        <mxCell id="iRPn7jhy0V3vgC46jtZ8-8" value="「マイページ」を&lt;br&gt;クリック" style="rounded=0;whiteSpace=wrap;html=1;" vertex="1" parent="1">
          <mxGeometry x="960" y="40" width="120" height="40" as="geometry" />
        </mxCell>
        <mxCell id="iRPn7jhy0V3vgC46jtZ8-12" value="「ログアウト」を&lt;br&gt;クリック" style="rounded=0;whiteSpace=wrap;html=1;" vertex="1" parent="1">
          <mxGeometry x="1080" y="40" width="120" height="40" as="geometry" />
        </mxCell>
        <mxCell id="iRPn7jhy0V3vgC46jtZ8-13" value="グローバルナビゲーション（ログイン中）/TeamWORKをクリックするとトップページへ" style="rounded=0;whiteSpace=wrap;html=1;fillColor=#d5e8d4;strokeColor=#82b366;" vertex="1" parent="1">
          <mxGeometry width="1200" height="40" as="geometry" />
        </mxCell>
        <mxCell id="iRPn7jhy0V3vgC46jtZ8-16" value="「Home」を&lt;br&gt;クリック" style="rounded=0;whiteSpace=wrap;html=1;" vertex="1" parent="1">
          <mxGeometry x="1240" y="40" width="120" height="40" as="geometry" />
        </mxCell>
        <mxCell id="iRPn7jhy0V3vgC46jtZ8-17" value="「ログイン」を&lt;br&gt;クリック" style="rounded=0;whiteSpace=wrap;html=1;" vertex="1" parent="1">
          <mxGeometry x="1360" y="40" width="120" height="40" as="geometry" />
        </mxCell>
        <mxCell id="iRPn7jhy0V3vgC46jtZ8-18" value="「新規登録」を&lt;br&gt;クリック" style="rounded=0;whiteSpace=wrap;html=1;" vertex="1" parent="1">
          <mxGeometry x="1480" y="40" width="120" height="40" as="geometry" />
        </mxCell>
        <mxCell id="iRPn7jhy0V3vgC46jtZ8-19" value="グローバルナビゲーショ（ログアウト中）" style="rounded=0;whiteSpace=wrap;html=1;fillColor=#d5e8d4;strokeColor=#82b366;" vertex="1" parent="1">
          <mxGeometry x="1240" width="360" height="40" as="geometry" />
        </mxCell>
        <mxCell id="iRPn7jhy0V3vgC46jtZ8-20" value="ログイン画面" style="swimlane;fontStyle=1;align=center;verticalAlign=top;childLayout=stackLayout;horizontal=1;startSize=26;horizontalStack=0;resizeParent=1;resizeParentMax=0;resizeLast=0;collapsible=1;marginBottom=0;" vertex="1" parent="1">
          <mxGeometry x="640" y="160" width="160" height="100" as="geometry">
            <mxRectangle x="640" y="160" width="100" height="26" as="alternateBounds" />
          </mxGeometry>
        </mxCell>
        <mxCell id="iRPn7jhy0V3vgC46jtZ8-21" value="「ログイン」をクリック" style="text;strokeColor=none;fillColor=none;align=left;verticalAlign=top;spacingLeft=4;spacingRight=4;overflow=hidden;rotatable=0;points=[[0,0.5],[1,0.5]];portConstraint=eastwest;" vertex="1" parent="iRPn7jhy0V3vgC46jtZ8-20">
          <mxGeometry y="26" width="160" height="26" as="geometry" />
        </mxCell>
        <mxCell id="iRPn7jhy0V3vgC46jtZ8-22" value="" style="line;strokeWidth=1;fillColor=none;align=left;verticalAlign=middle;spacingTop=-1;spacingLeft=3;spacingRight=3;rotatable=0;labelPosition=right;points=[];portConstraint=eastwest;" vertex="1" parent="iRPn7jhy0V3vgC46jtZ8-20">
          <mxGeometry y="52" width="160" height="8" as="geometry" />
        </mxCell>
        <mxCell id="iRPn7jhy0V3vgC46jtZ8-23" value="パスワードを忘れた場合は&#xa;新規登録画面へ" style="text;strokeColor=none;fillColor=none;align=left;verticalAlign=top;spacingLeft=4;spacingRight=4;overflow=hidden;rotatable=0;points=[[0,0.5],[1,0.5]];portConstraint=eastwest;" vertex="1" parent="iRPn7jhy0V3vgC46jtZ8-20">
          <mxGeometry y="60" width="160" height="40" as="geometry" />
        </mxCell>
        <mxCell id="iRPn7jhy0V3vgC46jtZ8-25" value="新規登録画面" style="swimlane;fontStyle=1;align=center;verticalAlign=top;childLayout=stackLayout;horizontal=1;startSize=26;horizontalStack=0;resizeParent=1;resizeParentMax=0;resizeLast=0;collapsible=1;marginBottom=0;" vertex="1" parent="1">
          <mxGeometry x="940" y="160" width="160" height="86" as="geometry" />
        </mxCell>
        <mxCell id="iRPn7jhy0V3vgC46jtZ8-26" value="「新規登録」をクリック" style="text;strokeColor=none;fillColor=none;align=left;verticalAlign=top;spacingLeft=4;spacingRight=4;overflow=hidden;rotatable=0;points=[[0,0.5],[1,0.5]];portConstraint=eastwest;" vertex="1" parent="iRPn7jhy0V3vgC46jtZ8-25">
          <mxGeometry y="26" width="160" height="26" as="geometry" />
        </mxCell>
        <mxCell id="iRPn7jhy0V3vgC46jtZ8-27" value="" style="line;strokeWidth=1;fillColor=none;align=left;verticalAlign=middle;spacingTop=-1;spacingLeft=3;spacingRight=3;rotatable=0;labelPosition=right;points=[];portConstraint=eastwest;" vertex="1" parent="iRPn7jhy0V3vgC46jtZ8-25">
          <mxGeometry y="52" width="160" height="8" as="geometry" />
        </mxCell>
        <mxCell id="iRPn7jhy0V3vgC46jtZ8-28" value="+ method(type): type" style="text;strokeColor=none;fillColor=none;align=left;verticalAlign=top;spacingLeft=4;spacingRight=4;overflow=hidden;rotatable=0;points=[[0,0.5],[1,0.5]];portConstraint=eastwest;" vertex="1" parent="iRPn7jhy0V3vgC46jtZ8-25">
          <mxGeometry y="60" width="160" height="26" as="geometry" />
        </mxCell>
        <mxCell id="iRPn7jhy0V3vgC46jtZ8-32" value="" style="endArrow=classic;html=1;exitX=0.5;exitY=1;exitDx=0;exitDy=0;entryX=0.5;entryY=0;entryDx=0;entryDy=0;" edge="1" parent="1" source="iRPn7jhy0V3vgC46jtZ8-12" target="iRPn7jhy0V3vgC46jtZ8-20">
          <mxGeometry width="50" height="50" relative="1" as="geometry">
            <mxPoint x="650" y="230" as="sourcePoint" />
            <mxPoint x="700" y="180" as="targetPoint" />
          </mxGeometry>
        </mxCell>
        <mxCell id="iRPn7jhy0V3vgC46jtZ8-35" value="" style="curved=1;endArrow=classic;html=1;" edge="1" parent="1">
          <mxGeometry width="50" height="50" relative="1" as="geometry">
            <mxPoint x="800" y="210" as="sourcePoint" />
            <mxPoint x="795" y="170" as="targetPoint" />
            <Array as="points">
              <mxPoint x="845" y="210" />
              <mxPoint x="795" y="170" />
            </Array>
          </mxGeometry>
        </mxCell>
        <mxCell id="iRPn7jhy0V3vgC46jtZ8-36" value="失敗" style="text;html=1;align=center;verticalAlign=middle;resizable=0;points=[];autosize=1;strokeColor=none;" vertex="1" parent="1">
          <mxGeometry x="820" y="190" width="40" height="20" as="geometry" />
        </mxCell>
        <mxCell id="iRPn7jhy0V3vgC46jtZ8-44" value="成功" style="text;html=1;align=center;verticalAlign=middle;resizable=0;points=[];autosize=1;strokeColor=none;" vertex="1" parent="1">
          <mxGeometry x="700" y="280" width="40" height="20" as="geometry" />
        </mxCell>
        <mxCell id="iRPn7jhy0V3vgC46jtZ8-45" value="マイページ画面" style="swimlane;fontStyle=1;align=center;verticalAlign=top;childLayout=stackLayout;horizontal=1;startSize=26;horizontalStack=0;resizeParent=1;resizeParentMax=0;resizeLast=0;collapsible=1;marginBottom=0;" vertex="1" parent="1">
          <mxGeometry x="680" y="450" width="160" height="86" as="geometry" />
        </mxCell>
        <mxCell id="iRPn7jhy0V3vgC46jtZ8-46" value="「編集」をクリック" style="text;strokeColor=none;fillColor=none;align=left;verticalAlign=top;spacingLeft=4;spacingRight=4;overflow=hidden;rotatable=0;points=[[0,0.5],[1,0.5]];portConstraint=eastwest;" vertex="1" parent="iRPn7jhy0V3vgC46jtZ8-45">
          <mxGeometry y="26" width="160" height="26" as="geometry" />
        </mxCell>
        <mxCell id="iRPn7jhy0V3vgC46jtZ8-47" value="" style="line;strokeWidth=1;fillColor=none;align=left;verticalAlign=middle;spacingTop=-1;spacingLeft=3;spacingRight=3;rotatable=0;labelPosition=right;points=[];portConstraint=eastwest;" vertex="1" parent="iRPn7jhy0V3vgC46jtZ8-45">
          <mxGeometry y="52" width="160" height="8" as="geometry" />
        </mxCell>
        <mxCell id="iRPn7jhy0V3vgC46jtZ8-48" value="「戻る」をクリック" style="text;strokeColor=none;fillColor=none;align=left;verticalAlign=top;spacingLeft=4;spacingRight=4;overflow=hidden;rotatable=0;points=[[0,0.5],[1,0.5]];portConstraint=eastwest;" vertex="1" parent="iRPn7jhy0V3vgC46jtZ8-45">
          <mxGeometry y="60" width="160" height="26" as="geometry" />
        </mxCell>
        <mxCell id="iRPn7jhy0V3vgC46jtZ8-52" value="" style="endArrow=classic;html=1;entryX=0.5;entryY=0;entryDx=0;entryDy=0;exitX=0.494;exitY=1.025;exitDx=0;exitDy=0;exitPerimeter=0;" edge="1" parent="1" source="iRPn7jhy0V3vgC46jtZ8-23" target="iRPn7jhy0V3vgC46jtZ8-45">
          <mxGeometry width="50" height="50" relative="1" as="geometry">
            <mxPoint x="730" y="220" as="sourcePoint" />
            <mxPoint x="780" y="170" as="targetPoint" />
          </mxGeometry>
        </mxCell>
        <mxCell id="iRPn7jhy0V3vgC46jtZ8-53" value="" style="endArrow=classic;html=1;entryX=0.25;entryY=0;entryDx=0;entryDy=0;exitX=0.5;exitY=1;exitDx=0;exitDy=0;" edge="1" parent="1" source="iRPn7jhy0V3vgC46jtZ8-8" target="iRPn7jhy0V3vgC46jtZ8-45">
          <mxGeometry width="50" height="50" relative="1" as="geometry">
            <mxPoint x="730" y="220" as="sourcePoint" />
            <mxPoint x="780" y="170" as="targetPoint" />
          </mxGeometry>
        </mxCell>
        <mxCell id="iRPn7jhy0V3vgC46jtZ8-54" value="チーム一覧画面" style="swimlane;fontStyle=1;align=center;verticalAlign=top;childLayout=stackLayout;horizontal=1;startSize=26;horizontalStack=0;resizeParent=1;resizeParentMax=0;resizeLast=0;collapsible=1;marginBottom=0;" vertex="1" parent="1">
          <mxGeometry x="470" y="276" width="160" height="86" as="geometry" />
        </mxCell>
        <mxCell id="iRPn7jhy0V3vgC46jtZ8-55" value="「新規登録」をクリック" style="text;strokeColor=none;fillColor=none;align=left;verticalAlign=top;spacingLeft=4;spacingRight=4;overflow=hidden;rotatable=0;points=[[0,0.5],[1,0.5]];portConstraint=eastwest;" vertex="1" parent="iRPn7jhy0V3vgC46jtZ8-54">
          <mxGeometry y="26" width="160" height="26" as="geometry" />
        </mxCell>
        <mxCell id="iRPn7jhy0V3vgC46jtZ8-56" value="" style="line;strokeWidth=1;fillColor=none;align=left;verticalAlign=middle;spacingTop=-1;spacingLeft=3;spacingRight=3;rotatable=0;labelPosition=right;points=[];portConstraint=eastwest;" vertex="1" parent="iRPn7jhy0V3vgC46jtZ8-54">
          <mxGeometry y="52" width="160" height="8" as="geometry" />
        </mxCell>
        <mxCell id="iRPn7jhy0V3vgC46jtZ8-57" value="+ method(type): type" style="text;strokeColor=none;fillColor=none;align=left;verticalAlign=top;spacingLeft=4;spacingRight=4;overflow=hidden;rotatable=0;points=[[0,0.5],[1,0.5]];portConstraint=eastwest;" vertex="1" parent="iRPn7jhy0V3vgC46jtZ8-54">
          <mxGeometry y="60" width="160" height="26" as="geometry" />
        </mxCell>
        <mxCell id="iRPn7jhy0V3vgC46jtZ8-58" value="ユーザー一覧画面" style="swimlane;fontStyle=1;align=center;verticalAlign=top;childLayout=stackLayout;horizontal=1;startSize=26;horizontalStack=0;resizeParent=1;resizeParentMax=0;resizeLast=0;collapsible=1;marginBottom=0;" vertex="1" parent="1">
          <mxGeometry x="520" y="370" width="160" height="86" as="geometry" />
        </mxCell>
        <mxCell id="iRPn7jhy0V3vgC46jtZ8-59" value="「新規登録」をクリック" style="text;strokeColor=none;fillColor=none;align=left;verticalAlign=top;spacingLeft=4;spacingRight=4;overflow=hidden;rotatable=0;points=[[0,0.5],[1,0.5]];portConstraint=eastwest;" vertex="1" parent="iRPn7jhy0V3vgC46jtZ8-58">
          <mxGeometry y="26" width="160" height="26" as="geometry" />
        </mxCell>
        <mxCell id="iRPn7jhy0V3vgC46jtZ8-60" value="" style="line;strokeWidth=1;fillColor=none;align=left;verticalAlign=middle;spacingTop=-1;spacingLeft=3;spacingRight=3;rotatable=0;labelPosition=right;points=[];portConstraint=eastwest;" vertex="1" parent="iRPn7jhy0V3vgC46jtZ8-58">
          <mxGeometry y="52" width="160" height="8" as="geometry" />
        </mxCell>
        <mxCell id="iRPn7jhy0V3vgC46jtZ8-61" value="+ method(type): type" style="text;strokeColor=none;fillColor=none;align=left;verticalAlign=top;spacingLeft=4;spacingRight=4;overflow=hidden;rotatable=0;points=[[0,0.5],[1,0.5]];portConstraint=eastwest;" vertex="1" parent="iRPn7jhy0V3vgC46jtZ8-58">
          <mxGeometry y="60" width="160" height="26" as="geometry" />
        </mxCell>
        <mxCell id="iRPn7jhy0V3vgC46jtZ8-62" value="出勤状況画面" style="swimlane;fontStyle=1;align=center;verticalAlign=top;childLayout=stackLayout;horizontal=1;startSize=26;horizontalStack=0;resizeParent=1;resizeParentMax=0;resizeLast=0;collapsible=1;marginBottom=0;" vertex="1" parent="1">
          <mxGeometry x="480" y="510" width="160" height="86" as="geometry" />
        </mxCell>
        <mxCell id="iRPn7jhy0V3vgC46jtZ8-63" value="「新規登録」をクリック" style="text;strokeColor=none;fillColor=none;align=left;verticalAlign=top;spacingLeft=4;spacingRight=4;overflow=hidden;rotatable=0;points=[[0,0.5],[1,0.5]];portConstraint=eastwest;" vertex="1" parent="iRPn7jhy0V3vgC46jtZ8-62">
          <mxGeometry y="26" width="160" height="26" as="geometry" />
        </mxCell>
        <mxCell id="iRPn7jhy0V3vgC46jtZ8-64" value="" style="line;strokeWidth=1;fillColor=none;align=left;verticalAlign=middle;spacingTop=-1;spacingLeft=3;spacingRight=3;rotatable=0;labelPosition=right;points=[];portConstraint=eastwest;" vertex="1" parent="iRPn7jhy0V3vgC46jtZ8-62">
          <mxGeometry y="52" width="160" height="8" as="geometry" />
        </mxCell>
        <mxCell id="iRPn7jhy0V3vgC46jtZ8-65" value="+ method(type): type" style="text;strokeColor=none;fillColor=none;align=left;verticalAlign=top;spacingLeft=4;spacingRight=4;overflow=hidden;rotatable=0;points=[[0,0.5],[1,0.5]];portConstraint=eastwest;" vertex="1" parent="iRPn7jhy0V3vgC46jtZ8-62">
          <mxGeometry y="60" width="160" height="26" as="geometry" />
        </mxCell>
        <mxCell id="iRPn7jhy0V3vgC46jtZ8-66" value="雑談新規投稿画面" style="swimlane;fontStyle=1;align=center;verticalAlign=top;childLayout=stackLayout;horizontal=1;startSize=26;horizontalStack=0;resizeParent=1;resizeParentMax=0;resizeLast=0;collapsible=1;marginBottom=0;" vertex="1" parent="1">
          <mxGeometry x="280" y="340" width="160" height="86" as="geometry" />
        </mxCell>
        <mxCell id="iRPn7jhy0V3vgC46jtZ8-67" value="「新規登録」をクリック" style="text;strokeColor=none;fillColor=none;align=left;verticalAlign=top;spacingLeft=4;spacingRight=4;overflow=hidden;rotatable=0;points=[[0,0.5],[1,0.5]];portConstraint=eastwest;" vertex="1" parent="iRPn7jhy0V3vgC46jtZ8-66">
          <mxGeometry y="26" width="160" height="26" as="geometry" />
        </mxCell>
        <mxCell id="iRPn7jhy0V3vgC46jtZ8-68" value="" style="line;strokeWidth=1;fillColor=none;align=left;verticalAlign=middle;spacingTop=-1;spacingLeft=3;spacingRight=3;rotatable=0;labelPosition=right;points=[];portConstraint=eastwest;" vertex="1" parent="iRPn7jhy0V3vgC46jtZ8-66">
          <mxGeometry y="52" width="160" height="8" as="geometry" />
        </mxCell>
        <mxCell id="iRPn7jhy0V3vgC46jtZ8-69" value="+ method(type): type" style="text;strokeColor=none;fillColor=none;align=left;verticalAlign=top;spacingLeft=4;spacingRight=4;overflow=hidden;rotatable=0;points=[[0,0.5],[1,0.5]];portConstraint=eastwest;" vertex="1" parent="iRPn7jhy0V3vgC46jtZ8-66">
          <mxGeometry y="60" width="160" height="26" as="geometry" />
        </mxCell>
        <mxCell id="iRPn7jhy0V3vgC46jtZ8-70" value="作業内容一覧画面" style="swimlane;fontStyle=1;align=center;verticalAlign=top;childLayout=stackLayout;horizontal=1;startSize=26;horizontalStack=0;resizeParent=1;resizeParentMax=0;resizeLast=0;collapsible=1;marginBottom=0;" vertex="1" parent="1">
          <mxGeometry x="370" y="120" width="140" height="112" as="geometry" />
        </mxCell>
        <mxCell id="iRPn7jhy0V3vgC46jtZ8-71" value="「編集」をクリック" style="text;strokeColor=none;fillColor=none;align=left;verticalAlign=top;spacingLeft=4;spacingRight=4;overflow=hidden;rotatable=0;points=[[0,0.5],[1,0.5]];portConstraint=eastwest;" vertex="1" parent="iRPn7jhy0V3vgC46jtZ8-70">
          <mxGeometry y="26" width="140" height="26" as="geometry" />
        </mxCell>
        <mxCell id="iRPn7jhy0V3vgC46jtZ8-72" value="" style="line;strokeWidth=1;fillColor=none;align=left;verticalAlign=middle;spacingTop=-1;spacingLeft=3;spacingRight=3;rotatable=0;labelPosition=right;points=[];portConstraint=eastwest;" vertex="1" parent="iRPn7jhy0V3vgC46jtZ8-70">
          <mxGeometry y="52" width="140" height="8" as="geometry" />
        </mxCell>
        <mxCell id="iRPn7jhy0V3vgC46jtZ8-73" value="「詳細」をクリック" style="text;strokeColor=none;fillColor=none;align=left;verticalAlign=top;spacingLeft=4;spacingRight=4;overflow=hidden;rotatable=0;points=[[0,0.5],[1,0.5]];portConstraint=eastwest;" vertex="1" parent="iRPn7jhy0V3vgC46jtZ8-70">
          <mxGeometry y="60" width="140" height="26" as="geometry" />
        </mxCell>
        <mxCell id="iRPn7jhy0V3vgC46jtZ8-119" value="「削除」をクリック" style="text;fillColor=none;align=left;verticalAlign=top;spacingLeft=4;spacingRight=4;overflow=hidden;rotatable=0;points=[[0,0.5],[1,0.5]];portConstraint=eastwest;strokeColor=#000000;" vertex="1" parent="iRPn7jhy0V3vgC46jtZ8-70">
          <mxGeometry y="86" width="140" height="26" as="geometry" />
        </mxCell>
        <mxCell id="iRPn7jhy0V3vgC46jtZ8-74" value="作業内容新規作成" style="swimlane;fontStyle=1;align=center;verticalAlign=top;childLayout=stackLayout;horizontal=1;startSize=26;horizontalStack=0;resizeParent=1;resizeParentMax=0;resizeLast=0;collapsible=1;marginBottom=0;" vertex="1" parent="1">
          <mxGeometry x="200" y="120" width="140" height="50" as="geometry" />
        </mxCell>
        <mxCell id="iRPn7jhy0V3vgC46jtZ8-75" value="「新規作成」をクリック" style="text;strokeColor=none;fillColor=none;align=left;verticalAlign=top;spacingLeft=4;spacingRight=4;overflow=hidden;rotatable=0;points=[[0,0.5],[1,0.5]];portConstraint=eastwest;" vertex="1" parent="iRPn7jhy0V3vgC46jtZ8-74">
          <mxGeometry y="26" width="140" height="24" as="geometry" />
        </mxCell>
        <mxCell id="iRPn7jhy0V3vgC46jtZ8-76" value="" style="line;strokeWidth=1;fillColor=none;align=left;verticalAlign=middle;spacingTop=-1;spacingLeft=3;spacingRight=3;rotatable=0;labelPosition=right;points=[];portConstraint=eastwest;" vertex="1" parent="iRPn7jhy0V3vgC46jtZ8-74">
          <mxGeometry y="50" width="140" as="geometry" />
        </mxCell>
        <mxCell id="iRPn7jhy0V3vgC46jtZ8-82" value="" style="endArrow=classic;html=1;exitX=0.531;exitY=1.038;exitDx=0;exitDy=0;exitPerimeter=0;entryX=0.75;entryY=0;entryDx=0;entryDy=0;" edge="1" parent="1" source="iRPn7jhy0V3vgC46jtZ8-28" target="iRPn7jhy0V3vgC46jtZ8-45">
          <mxGeometry width="50" height="50" relative="1" as="geometry">
            <mxPoint x="620" y="340" as="sourcePoint" />
            <mxPoint x="680" y="300" as="targetPoint" />
          </mxGeometry>
        </mxCell>
        <mxCell id="iRPn7jhy0V3vgC46jtZ8-84" value="成功" style="text;html=1;align=center;verticalAlign=middle;resizable=0;points=[];autosize=1;strokeColor=none;" vertex="1" parent="1">
          <mxGeometry x="900" y="280" width="40" height="20" as="geometry" />
        </mxCell>
        <mxCell id="iRPn7jhy0V3vgC46jtZ8-85" value="" style="curved=1;endArrow=classic;html=1;" edge="1" parent="1">
          <mxGeometry width="50" height="50" relative="1" as="geometry">
            <mxPoint x="1105" y="210" as="sourcePoint" />
            <mxPoint x="1100" y="170" as="targetPoint" />
            <Array as="points">
              <mxPoint x="1150" y="210" />
              <mxPoint x="1100" y="170" />
            </Array>
          </mxGeometry>
        </mxCell>
        <mxCell id="iRPn7jhy0V3vgC46jtZ8-86" value="失敗" style="text;html=1;align=center;verticalAlign=middle;resizable=0;points=[];autosize=1;strokeColor=none;" vertex="1" parent="1">
          <mxGeometry x="1140" y="190" width="40" height="20" as="geometry" />
        </mxCell>
        <mxCell id="iRPn7jhy0V3vgC46jtZ8-87" value="" style="endArrow=classic;html=1;entryX=0.613;entryY=-0.04;entryDx=0;entryDy=0;entryPerimeter=0;exitX=0.5;exitY=1;exitDx=0;exitDy=0;" edge="1" parent="1" source="iRPn7jhy0V3vgC46jtZ8-17" target="iRPn7jhy0V3vgC46jtZ8-20">
          <mxGeometry width="50" height="50" relative="1" as="geometry">
            <mxPoint x="680" y="330" as="sourcePoint" />
            <mxPoint x="730" y="280" as="targetPoint" />
          </mxGeometry>
        </mxCell>
        <mxCell id="iRPn7jhy0V3vgC46jtZ8-88" value="" style="endArrow=classic;html=1;entryX=0.5;entryY=0;entryDx=0;entryDy=0;exitX=0.5;exitY=1;exitDx=0;exitDy=0;" edge="1" parent="1" source="iRPn7jhy0V3vgC46jtZ8-18" target="iRPn7jhy0V3vgC46jtZ8-25">
          <mxGeometry width="50" height="50" relative="1" as="geometry">
            <mxPoint x="680" y="330" as="sourcePoint" />
            <mxPoint x="730" y="280" as="targetPoint" />
          </mxGeometry>
        </mxCell>
        <mxCell id="iRPn7jhy0V3vgC46jtZ8-90" style="edgeStyle=orthogonalEdgeStyle;rounded=0;orthogonalLoop=1;jettySize=auto;html=1;exitX=0.5;exitY=1;exitDx=0;exitDy=0;" edge="1" parent="1" source="iRPn7jhy0V3vgC46jtZ8-17" target="iRPn7jhy0V3vgC46jtZ8-17">
          <mxGeometry relative="1" as="geometry" />
        </mxCell>
        <mxCell id="iRPn7jhy0V3vgC46jtZ8-96" value="「管理画面」を&lt;br&gt;クリック" style="rounded=0;whiteSpace=wrap;html=1;" vertex="1" parent="1">
          <mxGeometry x="120" y="40" width="120" height="40" as="geometry" />
        </mxCell>
        <mxCell id="iRPn7jhy0V3vgC46jtZ8-102" value="Home画面" style="swimlane;fontStyle=1;align=center;verticalAlign=top;childLayout=stackLayout;horizontal=1;startSize=26;horizontalStack=0;resizeParent=1;resizeParentMax=0;resizeLast=0;collapsible=1;marginBottom=0;" vertex="1" parent="1">
          <mxGeometry x="190" y="600" width="160" height="26" as="geometry" />
        </mxCell>
        <mxCell id="iRPn7jhy0V3vgC46jtZ8-104" value="" style="line;strokeWidth=1;fillColor=none;align=left;verticalAlign=middle;spacingTop=-1;spacingLeft=3;spacingRight=3;rotatable=0;labelPosition=right;points=[];portConstraint=eastwest;" vertex="1" parent="iRPn7jhy0V3vgC46jtZ8-102">
          <mxGeometry y="26" width="160" as="geometry" />
        </mxCell>
        <mxCell id="iRPn7jhy0V3vgC46jtZ8-106" value="Home画面" style="swimlane;fontStyle=1;align=center;verticalAlign=top;childLayout=stackLayout;horizontal=1;startSize=26;horizontalStack=0;resizeParent=1;resizeParentMax=0;resizeLast=0;collapsible=1;marginBottom=0;" vertex="1" parent="1">
          <mxGeometry x="10" y="240" width="140" height="52" as="geometry" />
        </mxCell>
        <mxCell id="iRPn7jhy0V3vgC46jtZ8-107" value="「Home」をクリック" style="text;strokeColor=none;fillColor=none;align=left;verticalAlign=top;spacingLeft=4;spacingRight=4;overflow=hidden;rotatable=0;points=[[0,0.5],[1,0.5]];portConstraint=eastwest;" vertex="1" parent="iRPn7jhy0V3vgC46jtZ8-106">
          <mxGeometry y="26" width="140" height="26" as="geometry" />
        </mxCell>
        <mxCell id="iRPn7jhy0V3vgC46jtZ8-108" value="" style="line;strokeWidth=1;fillColor=none;align=left;verticalAlign=middle;spacingTop=-1;spacingLeft=3;spacingRight=3;rotatable=0;labelPosition=right;points=[];portConstraint=eastwest;" vertex="1" parent="iRPn7jhy0V3vgC46jtZ8-106">
          <mxGeometry y="52" width="140" as="geometry" />
        </mxCell>
        <mxCell id="iRPn7jhy0V3vgC46jtZ8-109" value="管理画面" style="swimlane;fontStyle=1;align=center;verticalAlign=top;childLayout=stackLayout;horizontal=1;startSize=26;horizontalStack=0;resizeParent=1;resizeParentMax=0;resizeLast=0;collapsible=1;marginBottom=0;" vertex="1" parent="1">
          <mxGeometry x="30" y="120" width="140" height="52" as="geometry" />
        </mxCell>
        <mxCell id="iRPn7jhy0V3vgC46jtZ8-110" value="「管理画面」をクリック" style="text;strokeColor=none;fillColor=none;align=left;verticalAlign=top;spacingLeft=4;spacingRight=4;overflow=hidden;rotatable=0;points=[[0,0.5],[1,0.5]];portConstraint=eastwest;" vertex="1" parent="iRPn7jhy0V3vgC46jtZ8-109">
          <mxGeometry y="26" width="140" height="26" as="geometry" />
        </mxCell>
        <mxCell id="iRPn7jhy0V3vgC46jtZ8-111" value="" style="line;strokeWidth=1;fillColor=none;align=left;verticalAlign=middle;spacingTop=-1;spacingLeft=3;spacingRight=3;rotatable=0;labelPosition=right;points=[];portConstraint=eastwest;" vertex="1" parent="iRPn7jhy0V3vgC46jtZ8-109">
          <mxGeometry y="52" width="140" as="geometry" />
        </mxCell>
        <mxCell id="iRPn7jhy0V3vgC46jtZ8-123" value="" style="curved=1;endArrow=classic;html=1;entryX=0.5;entryY=0;entryDx=0;entryDy=0;" edge="1" parent="1" target="iRPn7jhy0V3vgC46jtZ8-70">
          <mxGeometry width="50" height="50" relative="1" as="geometry">
            <mxPoint x="267" y="170" as="sourcePoint" />
            <mxPoint x="440" y="110" as="targetPoint" />
            <Array as="points">
              <mxPoint x="320" y="200" />
              <mxPoint x="350" y="200" />
              <mxPoint x="350" y="120" />
              <mxPoint x="350" y="80" />
            </Array>
          </mxGeometry>
        </mxCell>
      </root>
    </mxGraphModel>
  </diagram>
</mxfile>
